{"title":"Guddu Ki Gun 2015 Hindi Movies DVDScr XviD AAC New +sample ☻rDX☻","uid":12665202,"size":739972031,"categoryP":"video","categoryS":"movies","magnet":"?xt=urn:btih:85d6b611774ae5d4204c662f6d60096808408b71&amp;dn=Guddu+Ki+Gun+2015+Hindi+Movies+DVDScr+XviD+AAC+New+%2Bsample+%E2%98%BBrDX%E2%98%BB&amp;tr=udp%3A%2F%2Ftracker.leechers-paradise.org%3A6969&amp;tr=udp%3A%2F%2Fzer0day.ch%3A1337&amp;tr=udp%3A%2F%2Fopen.demonii.com%3A1337&amp;tr=udp%3A%2F%2Ftracker.coppersurfer.tk%3A6969&amp;tr=udp%3A%2F%2Fexodus.desync.com%3A6969","seeders":1,"leechers":0,"uploader":"basicssom","files":2,"time":1446360102,"description":"----------------------------------------------------------------\r\nGuddu Ki Gun 2015 Hindi Movies DVDScr XviD AAC New Source with sample ~ ☻rDX☻\r\n\r\nSCREEN SHOTS &amp; POSTER:\r\n  \nhttp://doctorhosts.com/2015/11/GudduKiGun/11.html  \nhttp://doctorhosts.com/2015/11/GudduKiGun/1.html  \nhttp://doctorhosts.com/2015/11/GudduKiGun/2.html  \nhttp://doctorhosts.com/2015/11/GudduKiGun/3.html  \nhttp://doctorhosts.com/2015/11/GudduKiGun/4.html  \nhttp://doctorhosts.com/2015/11/GudduKiGun/5.html  \nhttp://doctorhosts.com/2015/11/GudduKiGun/6.html  \nhttp://doctorhosts.com/2015/11/GudduKiGun/7.html  \nhttp://doctorhosts.com/2015/11/GudduKiGun/8.html  \nhttp://doctorhosts.com/2015/11/GudduKiGun/9.html  \nhttp://doctorhosts.com/2015/11/GudduKiGun/10.html\r\n\r\nFormat                                   : Matroska\r\nFormat version                           : Version 4 / Version 2\r\nFile size                                : 689 MiB\r\nDuration                                 : 2h 11mn\r\nOverall bit rate                         : 735 Kbps\r\nMovie name                               : Guddu Ki Gun 2015 Hindi Movies DVDScr XviD AAC New Source ~ rDX ~\r\n\r\nVideo\r\nID                                       : 1\r\nFormat                                   : MPEG-4 Visual\r\nFormat profile                           : Advanced   \r\nFormat settings, BVOP                    : Yes\r\nFormat settings, QPel                    : No\r\nFormat settings, GMC                     : No warppoints\r\nFormat settings, Matrix                  : Default (H.263)\r\nCodec ID                                 : V_MS/VFW/FOURCC / XVID\r\nCodec ID/Hint                            : XviD\r\nDuration                                 : 2h 11mn\r\nBit rate                                 : 592 Kbps\r\nWidth                                    : 640 pixels\r\nHeight                                   : 272 pixels\r\nDisplay aspect ratio                     : 2.35:1\r\nFrame rate mode                          : Constant\r\nFrame rate                               : 25.000 fps\r\nColor space                              : YUV\r\nChroma subsampling                       : 4:2:0\r\nBit depth                                : 8 bits\r\nScan type                                : Progressive\r\nCompression mode                         : Lossy\r\nBits/(Pixel*Frame)                       : 0.136\r\nStream size                              : 555 MiB (81%)\r\nTitle                                    : ~ rDX ~\r\nWriting library                          : XviD 1.2.1 (UTC 2008-12-04)\r\nDefault                                  : Yes\r\nForced                                   : No\r\n\r\nAudio\r\nID                                       : 2\r\nFormat                                   : MPEG Audio\r\nFormat version                           : Version 1\r\nFormat profile                           : Layer 3\r\nMode                                     : Joint stereo\r\nMode extension                           : MS Stereo\r\nCodec ID                                 : A_MPEG/L3\r\nCodec ID/Hint                            : MP3\r\nDuration                                 : 2h 11mn\r\nBit rate mode                            : Constant\r\nBit rate                                 : 128 Kbps\r\nChannel(s)                               : 2 channels\r\nSampling rate                            : 48.0 KHz\r\nCompression mode                         : Lossy\r\nStream size                              : 120 MiB (17%)\r\nTitle                                    : ~ rDX ~\r\nWriting library                          : LAME3.99r\r\nEncoding settings                        : -m j -V 4 -q 2 -lowpass 17 -b 128\r\nDefault                                  : Yes\r\nForced                                   : No\r\n\r\nIMDB                                      \nhttp://www.imdb.com/title/tt4853926/","torrent":{"xt":"urn:btih:85d6b611774ae5d4204c662f6d60096808408b71","amp;dn":"Guddu+Ki+Gun+2015+Hindi+Movies+DVDScr+XviD+AAC+New+%2Bsample+%E2%98%BBrDX%E2%98%BB","amp;tr":["udp%3A%2F%2Ftracker.leechers-paradise.org%3A6969","udp%3A%2F%2Fzer0day.ch%3A1337","udp%3A%2F%2Fopen.demonii.com%3A1337","udp%3A%2F%2Ftracker.coppersurfer.tk%3A6969","udp%3A%2F%2Fexodus.desync.com%3A6969"],"infoHash":"85d6b611774ae5d4204c662f6d60096808408b71","infoHashBuffer":{"type":"Buffer","data":[133,214,182,17,119,74,229,212,32,76,102,47,109,96,9,104,8,64,139,113]},"announce":[],"urlList":[]}}